<?xml version="1.0" encoding="utf-8"?>
<!-- Generator: Adobe Illustrator 23.0.3, SVG Export Plug-In . SVG Version: 6.00 Build 0)  -->
<svg version="1.1" id="textblock" xmlns:svgjs="http://svgjs.dev/svgjs"
	 xmlns="http://www.w3.org/2000/svg" xmlns:xlink="http://www.w3.org/1999/xlink" x="0px" y="0px" viewBox="0 0 1000 238"
	 style="enable-background:new 0 0 1000 238;" xml:space="preserve">
<style type="text/css">
	.st0{fill:#FCE44D;}
	.st1{fill:#FFFFFF;}
	.st2{display:none;fill:none;}
</style>
<g transform="matrix(1,0,0,1,0.16994382022460286,0.4245757539928974)">
	<g id="tight-bounds" transform="matrix(1,0,0,1,-0.06049999999996203,-0.1516341978546052)">
		<g>
			<g>
				<g>
					<path class="st0" d="M1.5,238.6V-0.3h997.1v238.8H1.5z"/>
					<path class="st1" d="M10.7,229.4V8.9h978.8v220.5H10.7z"/>
					<path class="st0" d="M29.1,211V27.3h942V211H29.1z"/>
				</g>
				<g id="textblocktransform" transform="matrix(1,0,0,1,19.69974,19.69974)">
					<g>
						<g transform="matrix(1,0,0,1,0,0)">
							<path id="text-0" class="st1" d="M108.2,163.7L108.2,163.7c-14.6,0-27.3-2.5-38-7.4c-10.7-4.9-18.9-12-24.6-21.1
								c-5.7-9.2-8.6-20-8.6-32.6l0,0c0-11.1,2-20.9,6-29.3c4-8.4,9.6-15.4,16.7-21c7.1-5.6,15.3-9.7,24.5-12.5
								c9.2-2.7,19.1-4.1,29.7-4.1l0,0c6.9,0,13.7,0.7,20.2,2.2c6.6,1.5,11.9,3.3,15.9,5.4l0,0l1.5,34.5l-15.2,0.8l-8.4-23.7
								c-2.7-1.1-5.3-1.9-7.8-2.4c-2.5-0.5-5.2-0.7-8.1-0.7l0,0c-6.5,0-12.2,1.7-17.2,5c-5,3.3-8.9,8.3-11.7,14.9
								c-2.8,6.6-4.2,14.8-4.2,24.7l0,0c0,10.2,1.6,19,4.8,26.5c3.2,7.5,7.6,13.4,13,17.5c5.4,4.2,11.5,6.2,18.1,6.2l0,0
								c4,0,7.6-0.5,10.9-1.5c3.3-1,6.2-2.5,8.6-4.4l0,0l7-19.9l16.9,1.7l-6.1,29.4c-4.4,3.3-10.5,6-18.6,8.3
								C125.4,162.6,117,163.7,108.2,163.7z M238.2,163.7L238.2,163.7c-13.4,0-25.3-2.7-35.8-8.1c-10.5-5.3-18.8-12.7-24.8-21.9
								c-6-9.3-9-19.9-9-31.7l0,0c0-12.8,3-24.2,8.9-34.1c5.9-10,14.1-17.8,24.6-23.5c10.5-5.7,22.4-8.6,35.8-8.6l0,0
								c13.1,0,24.7,2.6,34.7,7.8c10,5.2,17.8,12.4,23.5,21.7c5.6,9.3,8.4,20,8.4,32.2l0,0c0,11.8-2.2,21.9-6.6,30.3
								c-4.4,8.4-10.1,15.2-17.1,20.5c-6.9,5.3-14.1,9.1-21.7,11.6C251.6,162.5,244.6,163.7,238.2,163.7z M239.5,145.3L239.5,145.3
								c5.8,0,10.5-1.6,14.1-4.8c3.6-3.2,6.2-7.9,7.9-14.2c1.7-6.3,2.6-14,2.6-23.2l0,0c0-10.6-1.2-19.6-3.5-27.2
								c-2.3-7.6-5.6-13.5-9.8-17.7c-4.2-4.2-9.3-6.2-15.2-6.2l0,0c-8.1,0-14.4,3.7-19,11.1c-4.6,7.4-7,17.8-7,31.2l0,0
								c0,10,1.3,18.9,3.8,26.5s6.1,13.7,10.6,18C228.4,143.2,233.6,145.3,239.5,145.3z M385.1,161.8h-64.7l-0.6-12l13.7-4
								c0.3-0.6,0.6-2.5,0.9-5.7c0.3-3.2,0.5-7.3,0.6-12.3c0.1-4.9,0.2-10.1,0.2-15.5l0,0V87c0-5.5-0.1-10.7-0.2-15.6
								c-0.1-4.9-0.3-9-0.6-12.3c-0.3-3.3-0.6-5.2-0.9-5.6l0,0l-13.7-3.6l0.6-12h64.7l0.6,12L372,53.4c-0.3,0.7-0.5,2.8-0.7,6.4
								c-0.2,3.5-0.4,7.7-0.6,12.7c-0.1,4.9-0.2,9.8-0.2,14.5l0,0v25.4c0,4.7,0.1,9.4,0.2,14.3c0.1,4.8,0.3,9,0.6,12.6
								c0.2,3.5,0.4,5.7,0.7,6.5l0,0l13.7,4L385.1,161.8z M504.6,94.1c0-5.9,0-11.8-0.1-17.7c-0.1-5.9-0.2-11-0.4-15.2
								c-0.2-4.2-0.5-6.7-1-7.4l0,0l-15-4l0.6-12h48.2l0.6,12l-13.8,4c-0.3,0.7-0.5,3.1-0.8,7.3s-0.5,9.2-0.5,15.1
								c-0.1,5.9-0.1,11.9-0.1,18l0,0v34.1c0,7.7,0,14.2-0.1,19.5c-0.1,5.3-0.1,10.4-0.1,15.3l0,0h-15l-74-61.7c0,7,0,13.8,0.1,20.2
								c0.1,6.4,0.2,11.8,0.5,16.1c0.3,4.4,0.6,7.1,1.1,8.1l0,0l15,4l-0.6,12h-49.3l-0.6-12l13.8-4c0.3-1,0.5-3.8,0.7-8.4
								c0.2-4.7,0.4-10.2,0.5-16.7c0.1-6.5,0.2-12.9,0.2-19.2l0,0V78.5c0-1.7-0.1-4.2-0.3-7.7c-0.2-3.5-0.4-6.9-0.6-10.3
								s-0.4-5.6-0.5-6.8l0,0l-13.8-4l0.6-12h36.4L504.6,94.1z M596.3,163.7L596.3,163.7c-5.9,0-12.6-0.9-20.1-2.8
								c-7.5-1.8-14.1-4.3-19.9-7.4l0,0l-0.8-33.6l16.5-0.8l7.8,23.7c2.3,1.4,5.2,2.6,8.8,3.6c3.6,1,7,1.5,10.2,1.5l0,0
								c5.8,0,10.1-1.1,13-3.3c2.9-2.2,4.3-5.3,4.3-9.2l0,0c0-4.6-1.4-8.4-4.3-11.2c-2.9-2.8-6.6-5.2-11.2-7
								c-4.6-1.8-9.5-3.7-14.7-5.5c-5.2-1.8-10.1-4.2-14.7-7c-4.6-2.8-8.3-6.5-11.2-11.1c-2.9-4.6-4.3-10.6-4.3-18.1l0,0
								c0-8.1,2.3-15.1,7-21.1c4.6-6.1,11.2-10.8,19.7-14.2c8.5-3.4,18.4-5.1,29.8-5.1l0,0c3,0,6.4,0.3,10.3,0.9
								c4,0.5,7.8,1.3,11.6,2.2c3.8,0.9,7.1,2,9.7,3.3l0,0l3.2,33.6L631,76l-7.4-22.6c-4-1.7-8.5-2.5-13.5-2.5l0,0
								c-4.6,0-8.7,1.2-12.3,3.7c-3.5,2.5-5.3,6.2-5.3,11.3l0,0c0,4.4,1.5,7.9,4.5,10.6c2.9,2.7,6.7,5,11.4,7c4.6,2,9.6,4,14.9,5.9
								c5.3,2,10.3,4.4,14.9,7.2c4.6,2.8,8.4,6.5,11.4,10.9c3,4.4,4.5,10.1,4.5,17l0,0c0,7.6-2.4,14.3-7.2,20.3
								c-4.8,5.9-11.5,10.6-20.1,14S608,163.7,596.3,163.7z M810.6,161.8h-71.5l-1-12l9.9-2.1c-0.7-1.6-1.4-2.9-2.1-4.1
								c-0.7-1.2-2.1-3.2-4.2-6.1l0,0L719.5,109h-3.2V97l2.8-0.5l43.5-44.4l-13.7-2.3l0.6-12h52.8L801,50.5l-13.4,2l-39.1,33.8
								l35.1,43.6c4,4.8,7,8.4,9.1,10.8c2.1,2.4,3.7,4.1,4.6,5.2c1,1.1,1.7,1.9,2.1,2.4l0,0l11.2,1.3V161.8z M726.5,161.8h-59.6
								l-0.6-12l13.7-4c0.3-0.7,0.5-4.3,0.7-10.8c0.2-6.5,0.3-14,0.3-22.6l0,0V87c0-5.5-0.1-10.6-0.2-15.5
								c-0.1-4.9-0.4-8.9-0.6-12.2c-0.3-3.2-0.6-5.1-0.8-5.5l0,0l-13.8-4l0.6-12h64.7l0.6,12l-13.8,4c-0.3,0.7-0.5,2.8-0.7,6.2
								c-0.2,3.5-0.4,7.6-0.5,12.4c-0.1,4.8-0.2,9.6-0.2,14.5l0,0v25.4c0,8.6,0.1,16.1,0.3,22.6c0.2,6.5,0.5,10.1,0.7,10.8l0,0
								l9.7,4L726.5,161.8z M923.7,49.8l-10.8,4l-34.2,55.1v15.3c0,0.8,0,2.3,0,4.4c0,2.1,0.1,4.4,0.2,6.9c0.1,2.5,0.3,4.7,0.4,6.7
								c0.1,2,0.4,3.2,0.6,3.6l0,0l14.8,3.8l-0.6,12.3h-65.5l-0.6-12.3l14.8-3.8c0.3-0.4,0.5-1.6,0.5-3.6s0.2-4.2,0.3-6.7
								c0.1-2.5,0.2-4.7,0.2-6.9c0-2.1,0-3.6,0-4.4l0,0v-10.9l0,0l-34-59.5l-8.8-3.3l1.4-12.8h60.9l0.6,12l-13.7,4l21.2,38.1l0,0
								l21.4-38.1l-14.8-4l0.6-12h44.4L923.7,49.8z"/>
						</g>
					</g>
				</g>
			</g>
		</g>
		<rect x="1.5" y="-0.3" class="st2" width="997.1" height="238.8"/>
	</g>
</g>
</svg>
