<?xml version="1.0" encoding="UTF-8" ?>
<!DOCTYPE svg PUBLIC "-//W3C//DTD SVG 1.1//EN" "http://www.w3.org/Graphics/SVG/1.1/DTD/svg11.dtd">
<svg width="1593pt" height="444pt" viewBox="0 0 1593 444" version="1.1" xmlns="http://www.w3.org/2000/svg">
<g id="#ffeb3aff">
<path fill="#ffeb3a" opacity="1.00" d=" M 808.42 0.00 L 1094.43 0.00 C 1094.64 23.95 1094.31 47.91 1094.59 71.86 C 1042.92 71.82 991.26 71.90 939.59 71.82 C 939.58 111.66 939.70 151.50 939.54 191.34 C 895.82 191.33 852.10 191.21 808.38 191.38 C 808.34 127.58 808.26 63.79 808.42 0.00 Z" />
<path fill="#ffeb3a" opacity="1.00" d=" M 38.53 52.68 C 59.58 33.22 88.69 23.88 117.09 24.17 C 135.35 24.21 154.10 29.88 167.88 42.20 C 178.54 51.51 185.55 64.28 189.90 77.60 C 173.00 84.02 156.18 90.65 139.24 96.95 C 137.15 92.32 134.07 88.09 129.87 85.17 C 119.91 78.05 106.65 76.99 95.04 80.01 C 87.49 82.09 80.19 86.14 75.44 92.49 C 72.35 96.67 70.98 101.82 70.32 106.91 C 66.85 132.61 63.01 158.26 59.66 183.97 C 58.48 192.11 63.34 200.13 70.55 203.72 C 89.14 213.61 114.56 205.74 124.50 187.20 C 127.24 188.12 129.73 189.62 132.32 190.88 C 145.63 197.58 159.05 204.05 172.40 210.64 C 167.06 218.11 161.33 225.34 154.68 231.69 C 139.70 247.00 120.02 257.80 98.85 261.41 C 77.49 264.82 54.90 262.18 35.43 252.52 C 22.16 245.44 10.51 234.40 4.89 220.24 C 2.29 214.38 1.59 207.97 0.00 201.83 L 0.00 187.86 C 0.21 186.91 0.63 185.02 0.84 184.07 C 3.46 164.70 6.23 145.34 8.88 125.97 C 10.33 116.27 11.32 106.51 13.25 96.89 C 16.84 80.00 25.77 64.32 38.53 52.68 Z" />
<path fill="#ffeb3a" opacity="1.00" d=" M 322.49 24.68 C 343.90 22.80 366.17 25.71 385.41 35.67 C 397.92 42.18 408.84 52.37 414.85 65.25 C 418.15 72.05 419.80 79.54 420.53 87.03 C 421.29 97.09 419.41 107.07 417.99 116.99 C 414.95 138.37 411.78 159.73 408.73 181.10 C 406.53 198.04 399.81 214.57 388.38 227.39 C 374.58 243.18 355.32 253.51 335.14 258.60 C 315.53 263.44 294.79 264.36 274.97 260.11 C 259.81 256.70 244.82 250.37 233.63 239.32 C 219.02 225.89 213.06 204.94 215.69 185.57 C 219.29 159.01 223.34 132.51 227.12 105.98 C 229.36 89.53 235.82 73.47 246.81 60.91 C 265.56 38.91 294.17 27.34 322.49 24.68 M 310.46 80.40 C 299.17 83.48 288.22 91.94 286.12 104.01 C 282.36 130.70 278.25 157.34 274.63 184.04 C 273.39 192.19 278.78 199.68 285.78 203.26 C 298.67 210.15 314.42 209.42 327.94 204.82 C 336.52 201.74 344.69 195.81 348.11 187.09 C 350.35 180.59 350.68 173.67 351.83 166.94 C 354.82 147.14 357.67 127.32 360.63 107.52 C 361.29 103.84 361.59 100.01 360.91 96.32 C 359.59 89.08 353.50 83.73 346.97 81.00 C 335.34 76.61 322.26 76.72 310.46 80.40 Z" />
<path fill="#ffeb3a" opacity="1.00" d=" M 477.31 27.29 C 496.87 27.49 516.44 27.36 536.01 27.35 C 525.64 104.85 514.22 182.22 503.79 259.71 C 484.19 259.58 464.58 259.65 444.98 259.68 C 455.49 182.18 466.69 104.77 477.31 27.29 Z" />
<path fill="#ffeb3a" opacity="1.00" d=" M 596.06 27.36 C 614.58 27.51 633.11 27.25 651.62 27.48 C 656.93 38.85 661.56 50.60 666.62 62.11 C 674.60 80.76 682.62 99.39 690.51 118.08 C 695.60 128.83 697.86 140.59 701.25 151.92 C 703.17 159.07 705.43 166.12 707.20 173.30 C 707.47 172.97 708.02 172.31 708.30 171.98 C 708.26 159.99 708.22 147.98 707.83 135.99 C 707.72 131.25 708.71 126.60 709.28 121.92 C 713.67 90.41 718.17 58.92 722.48 27.41 C 741.97 27.35 761.46 27.47 780.95 27.34 C 770.17 104.78 759.33 182.22 748.45 259.64 C 728.63 259.49 708.81 259.76 689.00 259.50 C 676.47 230.25 663.70 201.09 651.08 171.87 C 648.82 167.09 647.74 161.89 646.09 156.89 C 642.69 145.63 639.53 134.29 636.02 123.07 C 635.67 122.69 634.97 121.92 634.62 121.54 C 634.61 136.03 634.83 150.52 634.93 165.01 C 635.02 169.11 634.05 173.12 633.63 177.17 C 629.89 204.63 626.02 232.07 622.36 259.54 C 602.72 259.59 583.08 259.78 563.46 259.44 C 574.45 182.10 585.03 104.69 596.06 27.36 Z" />
<path fill="#ffeb3a" opacity="1.00" d=" M 1152.20 27.32 C 1171.79 27.42 1191.39 27.43 1210.99 27.35 C 1207.36 55.78 1202.94 84.10 1199.13 112.50 C 1205.68 106.26 1211.13 98.97 1217.27 92.33 C 1236.19 70.68 1255.11 49.02 1274.08 27.40 C 1298.48 27.39 1322.89 27.39 1347.30 27.40 C 1311.25 65.42 1275.29 103.51 1239.28 141.56 C 1264.45 180.79 1289.38 220.18 1314.40 259.51 C 1289.79 259.71 1265.17 259.57 1240.56 259.58 C 1224.58 232.20 1208.54 204.83 1192.54 177.46 C 1190.74 176.43 1190.06 179.28 1189.72 180.53 C 1185.93 206.88 1182.34 233.27 1178.64 259.64 C 1158.92 259.45 1139.19 259.83 1119.47 259.45 C 1126.58 209.96 1133.37 160.42 1140.33 110.90 C 1144.37 83.06 1147.91 55.12 1152.20 27.32 Z" />
<path fill="#ffeb3a" opacity="1.00" d=" M 1371.77 27.39 C 1394.46 27.38 1417.16 27.43 1439.85 27.37 C 1450.07 54.49 1459.85 81.78 1470.14 108.88 C 1488.03 81.73 1505.93 54.58 1523.77 27.40 C 1546.85 27.55 1569.92 27.17 1593.00 27.25 L 1593.00 27.59 C 1589.51 31.35 1586.83 35.76 1583.77 39.86 C 1553.71 81.74 1523.68 123.65 1493.56 165.49 C 1492.65 166.82 1491.76 168.21 1491.53 169.83 C 1487.19 199.75 1483.26 229.75 1478.81 259.66 C 1459.25 259.52 1439.69 259.64 1420.13 259.60 C 1424.52 229.14 1428.59 198.64 1432.95 168.18 C 1412.68 121.20 1391.85 74.45 1371.77 27.39 Z" />
<path fill="#ffeb3a" opacity="1.00" d=" M 963.29 95.77 C 971.86 95.57 980.43 95.60 989.00 95.83 C 1024.15 95.57 1059.31 95.69 1094.46 95.70 C 1094.54 159.33 1094.45 222.96 1094.50 286.59 C 999.11 286.70 903.72 286.59 808.33 286.65 C 808.34 262.82 808.36 238.99 808.32 215.16 C 859.98 215.14 911.64 215.13 963.31 215.16 C 963.28 175.36 963.32 135.56 963.29 95.77 Z" />
<path fill="#ffeb3a" opacity="1.00" d=" M 282.60 331.72 C 290.65 330.15 299.76 332.36 305.22 338.73 C 309.88 343.65 311.80 350.43 312.58 356.99 C 313.35 366.91 311.50 377.95 304.14 385.19 C 294.70 394.54 277.23 393.54 269.23 382.80 C 262.61 374.30 262.12 362.81 263.63 352.57 C 265.21 342.74 272.43 333.46 282.60 331.72 M 285.03 338.09 C 277.57 338.93 272.74 346.07 271.46 352.95 C 269.72 361.76 270.28 371.76 275.71 379.25 C 280.87 386.46 292.70 387.16 298.59 380.50 C 303.52 375.32 304.82 367.90 305.03 361.02 C 304.70 354.87 303.71 348.32 299.65 343.43 C 296.37 338.97 290.33 337.17 285.03 338.09 Z" />
<path fill="#ffeb3a" opacity="1.00" d=" M 779.67 334.74 C 788.62 328.47 801.57 331.00 809.09 338.40 C 807.79 340.03 806.47 341.64 805.12 343.23 C 801.36 340.31 796.98 337.52 792.03 337.78 C 787.91 337.68 783.03 339.30 781.38 343.42 C 779.67 347.18 782.01 351.64 785.47 353.46 C 791.95 357.20 799.57 358.80 805.57 363.42 C 810.16 367.09 811.92 373.61 810.27 379.18 C 808.47 386.04 801.72 390.68 794.92 391.59 C 786.12 392.41 776.74 389.51 770.60 382.99 C 772.04 381.29 773.49 379.59 774.97 377.90 C 780.87 384.01 790.57 387.41 798.58 383.51 C 803.82 381.14 804.94 373.24 800.61 369.49 C 793.69 363.75 783.82 363.03 777.33 356.67 C 771.23 350.68 772.48 339.31 779.67 334.74 Z" />
<path fill="#ffeb3a" opacity="1.00" d=" M 959.65 335.77 C 968.25 328.44 982.23 330.39 989.91 338.13 C 989.79 340.28 987.41 341.55 986.20 343.20 C 980.88 338.23 972.38 335.71 965.81 339.72 C 961.18 342.23 961.15 349.61 965.44 352.47 C 972.29 357.41 981.43 358.40 987.73 364.25 C 992.74 368.74 993.23 376.65 990.33 382.43 C 986.78 388.34 979.94 391.98 973.06 391.77 C 965.34 391.49 957.20 388.93 951.95 383.02 C 953.28 381.27 954.82 379.69 956.25 378.01 C 962.38 383.98 972.21 387.60 980.23 383.31 C 984.99 380.73 985.93 373.59 982.28 369.73 C 975.41 363.94 965.67 363.11 958.99 357.05 C 953.05 351.49 953.43 340.95 959.65 335.77 Z" />
<path fill="#ffeb3a" opacity="1.00" d=" M 208.60 332.18 C 211.19 332.22 213.77 332.22 216.36 332.24 C 223.94 345.69 231.89 358.93 239.30 372.48 C 240.77 374.82 241.38 377.95 243.91 379.44 C 242.62 363.72 243.41 347.94 243.17 332.20 C 245.51 332.22 247.86 332.22 250.20 332.24 C 250.20 351.76 250.24 371.27 250.18 390.79 C 247.59 390.78 245.01 390.78 242.43 390.77 C 234.24 375.96 225.43 361.51 217.51 346.55 C 217.07 345.40 216.21 344.79 214.93 344.71 C 216.42 360.03 215.46 375.44 215.76 390.80 C 213.35 390.78 210.94 390.78 208.54 390.77 C 208.58 371.24 208.46 351.71 208.60 332.18 Z" />
<path fill="#ffeb3a" opacity="1.00" d=" M 318.05 332.19 C 332.30 332.26 346.54 332.21 360.78 332.21 C 360.76 334.35 360.75 336.48 360.73 338.63 C 354.83 338.58 348.93 338.60 343.03 338.61 C 342.95 356.02 343.14 373.43 342.92 390.83 C 340.43 390.78 337.94 390.78 335.45 390.77 C 335.49 373.37 335.43 355.98 335.48 338.58 C 329.69 338.65 323.90 338.53 318.11 338.67 C 318.08 336.50 318.07 334.34 318.05 332.19 Z" />
<path fill="#ffeb3a" opacity="1.00" d=" M 389.16 332.20 C 400.37 332.24 411.59 332.23 422.81 332.20 C 422.79 334.34 422.78 336.48 422.77 338.63 C 414.04 338.56 405.32 338.64 396.59 338.58 C 396.62 344.60 396.65 350.61 396.57 356.63 C 403.96 356.74 411.36 356.57 418.75 356.72 C 418.74 358.90 418.74 361.09 418.75 363.28 C 411.36 363.43 403.97 363.26 396.57 363.37 C 396.66 370.33 396.61 377.28 396.61 384.24 C 405.65 384.18 414.69 384.23 423.73 384.21 C 423.71 386.40 423.71 388.59 423.73 390.79 C 412.20 390.79 400.67 390.77 389.15 390.80 C 389.20 371.27 389.18 351.73 389.16 332.20 Z" />
<path fill="#ffeb3a" opacity="1.00" d=" M 427.97 332.22 C 430.63 332.22 433.29 332.22 435.95 332.21 C 440.59 347.76 445.30 363.29 449.72 378.90 C 450.04 380.17 450.53 381.44 451.55 382.33 C 456.39 365.60 461.22 348.85 466.29 332.19 C 468.84 332.22 471.39 332.22 473.94 332.23 C 467.72 351.72 461.53 371.22 455.47 390.75 C 452.51 390.79 449.55 390.79 446.60 390.76 C 440.49 371.21 434.17 351.73 427.97 332.22 Z" />
<path fill="#ffeb3a" opacity="1.00" d=" M 481.86 332.21 C 493.11 332.24 504.37 332.21 515.63 332.23 C 515.61 334.35 515.60 336.47 515.59 338.59 C 506.85 338.59 498.11 338.65 489.38 338.56 C 489.32 344.60 489.35 350.63 489.33 356.67 C 496.73 356.67 504.13 356.63 511.53 356.69 C 511.53 358.90 511.53 361.11 511.51 363.32 C 504.12 363.36 496.73 363.34 489.34 363.33 C 489.37 370.31 489.28 377.29 489.40 384.27 C 498.44 384.16 507.47 384.22 516.51 384.24 C 516.50 386.40 516.51 388.57 516.54 390.74 C 504.97 390.85 493.41 390.75 481.85 390.79 C 481.81 371.26 481.78 351.74 481.86 332.21 Z" />
<path fill="#ffeb3a" opacity="1.00" d=" M 528.76 332.20 C 531.34 332.22 533.92 332.22 536.51 332.24 C 544.04 345.72 552.00 358.95 559.38 372.51 C 560.85 374.85 561.43 378.02 564.03 379.44 C 562.60 363.73 563.47 347.95 563.21 332.20 C 565.60 332.22 567.99 332.22 570.39 332.24 C 570.36 351.76 570.46 371.29 570.34 390.81 C 567.74 390.78 565.14 390.78 562.54 390.75 C 554.93 377.08 546.89 363.66 539.35 349.95 C 537.98 347.77 537.45 344.80 534.97 343.56 C 536.42 359.27 535.53 375.06 535.80 390.80 C 533.43 390.78 531.07 390.78 528.71 390.77 C 528.73 371.25 528.65 351.73 528.76 332.20 Z" />
<path fill="#ffeb3a" opacity="1.00" d=" M 598.66 332.30 C 612.97 332.13 627.29 332.26 641.60 332.23 C 641.58 334.35 641.57 336.46 641.57 338.58 C 635.64 338.62 629.72 338.60 623.81 338.60 C 623.87 356.00 623.79 373.40 623.85 390.81 C 621.33 390.78 618.81 390.78 616.31 390.78 C 616.36 373.38 616.28 355.98 616.35 338.59 C 610.47 338.61 604.59 338.63 598.72 338.57 C 598.69 336.47 598.68 334.39 598.66 332.30 Z" />
<path fill="#ffeb3a" opacity="1.00" d=" M 652.06 332.19 C 654.50 332.22 656.94 332.22 659.39 332.20 C 659.50 340.35 659.43 348.51 659.42 356.67 C 668.42 356.63 677.42 356.71 686.42 356.63 C 686.31 348.50 686.42 340.36 686.36 332.23 C 688.87 332.22 691.39 332.22 693.92 332.18 C 693.89 351.73 693.89 371.27 693.91 390.82 C 691.39 390.78 688.88 390.78 686.37 390.78 C 686.42 381.65 686.30 372.52 686.43 363.39 C 677.43 363.26 668.42 363.38 659.42 363.33 C 659.48 372.45 659.37 381.57 659.49 390.69 C 657.01 390.78 654.54 390.79 652.07 390.84 C 652.08 371.29 652.09 351.74 652.06 332.19 Z" />
<path fill="#ffeb3a" opacity="1.00" d=" M 710.07 332.18 C 721.29 332.27 732.51 332.20 743.73 332.22 C 743.71 334.34 743.70 336.47 743.69 338.60 C 734.96 338.59 726.22 338.63 717.48 338.58 C 717.50 344.60 717.52 350.62 717.47 356.64 C 724.81 356.67 732.16 356.67 739.51 356.65 C 739.58 358.87 739.59 361.11 739.52 363.35 C 732.17 363.32 724.82 363.35 717.48 363.33 C 717.54 370.30 717.46 377.28 717.53 384.25 C 726.56 384.17 735.59 384.24 744.63 384.22 C 744.61 386.40 744.62 388.59 744.64 390.78 C 733.11 390.82 721.59 390.73 710.07 390.83 C 710.08 371.28 710.08 351.73 710.07 332.18 Z" />
<path fill="#ffeb3a" opacity="1.00" d=" M 822.29 332.21 C 824.78 332.22 827.27 332.22 829.78 332.21 C 829.80 341.93 829.63 351.64 829.86 361.36 C 838.29 351.88 846.07 341.86 854.29 332.20 C 857.10 332.22 859.92 332.22 862.74 332.24 C 856.60 339.67 850.45 347.11 844.43 354.63 C 851.62 366.60 858.50 378.75 865.60 390.78 C 862.80 390.78 860.01 390.78 857.22 390.80 C 851.27 380.71 845.77 370.35 839.63 360.37 C 836.42 364.29 833.13 368.13 829.76 371.91 C 829.77 378.20 829.73 384.50 829.78 390.80 C 827.27 390.78 824.78 390.78 822.29 390.79 C 822.31 371.26 822.31 351.74 822.29 332.21 Z" />
<path fill="#ffeb3a" opacity="1.00" d=" M 864.25 332.18 C 866.96 332.22 869.68 332.22 872.40 332.26 C 876.68 342.09 881.45 351.71 885.43 361.68 C 890.46 352.07 894.41 341.95 899.14 332.20 C 901.75 332.22 904.37 332.22 906.99 332.23 C 901.20 344.19 895.01 355.99 889.51 368.09 C 889.28 375.64 889.48 383.20 889.43 390.76 C 886.88 390.78 884.35 390.78 881.82 390.79 C 881.64 383.19 882.04 375.57 881.63 367.99 C 876.05 355.97 870.01 344.13 864.25 332.18 Z" />
<path fill="#ffeb3a" opacity="1.00" d=" M 932.74 332.21 C 935.18 332.22 937.62 332.22 940.07 332.22 C 940.17 351.74 940.12 371.26 940.10 390.78 C 937.65 390.78 935.21 390.78 932.77 390.81 C 932.65 371.28 932.69 351.74 932.74 332.21 Z" />
<path fill="#ffeb3a" opacity="1.00" d=" M 1016.11 332.18 C 1030.35 332.24 1044.59 332.22 1058.84 332.19 C 1058.80 334.34 1058.79 336.49 1058.78 338.64 C 1052.97 338.55 1047.16 338.67 1041.36 338.55 C 1041.24 355.96 1041.37 373.37 1041.29 390.78 C 1038.77 390.78 1036.25 390.78 1033.74 390.81 C 1033.54 373.40 1033.75 355.98 1033.63 338.56 C 1027.80 338.66 1021.97 338.55 1016.14 338.64 C 1016.13 336.48 1016.12 334.33 1016.11 332.18 Z" />
<path fill="#ffeb3a" opacity="1.00" d=" M 1069.26 332.20 C 1071.75 332.21 1074.25 332.21 1076.76 332.22 C 1076.67 340.35 1076.81 348.48 1076.68 356.61 C 1085.70 356.73 1094.73 356.62 1103.75 356.67 C 1103.77 348.51 1103.72 340.36 1103.78 332.21 C 1106.29 332.21 1108.81 332.21 1111.35 332.20 C 1111.41 351.73 1111.44 371.27 1111.34 390.81 C 1108.81 390.78 1106.30 390.78 1103.79 390.79 C 1103.70 381.64 1103.79 372.48 1103.74 363.33 C 1094.72 363.38 1085.70 363.27 1076.68 363.39 C 1076.81 372.52 1076.68 381.66 1076.75 390.79 C 1074.24 390.78 1071.75 390.78 1069.26 390.79 C 1069.28 371.26 1069.28 351.73 1069.26 332.20 Z" />
<path fill="#ffeb3a" opacity="1.00" d=" M 1127.24 332.20 C 1138.47 332.21 1149.70 332.25 1160.93 332.19 C 1160.90 334.34 1160.90 336.49 1160.90 338.64 C 1152.18 338.55 1143.46 338.64 1134.74 338.59 C 1134.77 344.60 1134.80 350.61 1134.72 356.62 C 1142.10 356.71 1149.48 356.64 1156.86 356.67 C 1156.85 358.88 1156.85 361.10 1156.87 363.33 C 1149.48 363.37 1142.10 363.28 1134.72 363.38 C 1134.80 370.33 1134.76 377.28 1134.75 384.23 C 1143.78 384.18 1152.82 384.25 1161.86 384.19 C 1161.84 386.39 1161.83 388.60 1161.86 390.81 C 1150.31 390.75 1138.77 390.79 1127.24 390.79 C 1127.27 371.26 1127.27 351.73 1127.24 332.20 Z" />
<path fill="#ffeb3a" opacity="1.00" d=" M 1192.16 332.20 C 1194.66 332.21 1197.17 332.22 1199.69 332.21 C 1199.64 349.55 1199.71 366.89 1199.66 384.24 C 1208.13 384.18 1216.60 384.24 1225.08 384.21 C 1225.09 386.40 1225.08 388.60 1225.07 390.80 C 1214.10 390.79 1203.13 390.75 1192.17 390.81 C 1192.18 371.27 1192.20 351.74 1192.16 332.20 Z" />
<path fill="#ffeb3a" opacity="1.00" d=" M 1235.30 332.21 C 1237.81 332.22 1240.32 332.21 1242.84 332.19 C 1242.82 351.73 1242.81 371.27 1242.84 390.81 C 1240.32 390.78 1237.80 390.78 1235.30 390.79 C 1235.34 371.26 1235.34 351.74 1235.30 332.21 Z" />
<path fill="#ffeb3a" opacity="1.00" d=" M 1298.66 332.28 C 1301.63 332.19 1304.61 332.20 1307.60 332.23 C 1307.55 351.74 1307.56 371.25 1307.59 390.77 C 1305.18 390.78 1302.78 390.78 1300.40 390.84 C 1300.27 379.57 1300.34 368.30 1300.36 357.03 C 1300.24 352.19 1301.37 347.40 1301.05 342.56 C 1297.83 348.94 1296.00 355.93 1293.35 362.56 C 1290.68 369.94 1287.83 377.27 1285.29 384.70 C 1283.85 384.74 1282.43 384.79 1281.03 384.84 C 1276.69 373.29 1272.31 361.75 1268.18 350.13 C 1267.39 348.43 1267.45 345.74 1265.01 345.70 C 1266.36 360.69 1265.46 375.77 1265.73 390.80 C 1263.41 390.78 1261.10 390.78 1258.80 390.77 C 1258.78 371.26 1258.79 351.75 1258.80 332.24 C 1261.69 332.46 1264.97 331.65 1267.64 332.62 C 1271.93 344.23 1276.13 355.87 1280.31 367.51 C 1281.35 370.07 1281.70 373.04 1283.66 375.14 C 1288.10 360.66 1293.84 346.63 1298.66 332.28 Z" />
<path fill="#ffeb3a" opacity="1.00" d=" M 1323.36 332.23 C 1325.86 332.22 1328.36 332.21 1330.88 332.18 C 1330.86 351.73 1330.85 371.27 1330.88 390.82 C 1328.37 390.78 1325.86 390.78 1323.37 390.78 C 1323.39 371.26 1323.39 351.74 1323.36 332.23 Z" />
<path fill="#ffeb3a" opacity="1.00" d=" M 1341.27 332.21 C 1355.50 332.21 1369.73 332.25 1383.96 332.18 C 1383.96 334.34 1383.96 336.50 1383.92 338.66 C 1378.13 338.54 1372.35 338.65 1366.57 338.58 C 1366.62 355.98 1366.56 373.37 1366.61 390.77 C 1364.08 390.78 1361.56 390.78 1359.06 390.82 C 1359.11 373.42 1359.04 356.01 1359.10 338.60 C 1353.16 338.60 1347.22 338.60 1341.29 338.60 C 1341.27 336.47 1341.27 334.33 1341.27 332.21 Z" />
<path fill="#ffeb3a" opacity="1.00" d=" M 37.17 357.63 C 86.97 357.65 136.77 357.75 186.57 357.58 C 186.51 360.13 186.51 362.69 186.53 365.26 C 136.74 365.14 86.96 365.23 37.17 365.21 C 37.18 362.68 37.18 360.15 37.17 357.63 Z" />
<path fill="#ffeb3a" opacity="1.00" d=" M 1406.34 365.28 C 1406.23 362.71 1406.23 360.14 1406.30 357.57 C 1456.08 357.74 1505.87 357.70 1555.65 357.59 C 1555.60 360.14 1555.60 362.69 1555.62 365.25 C 1505.86 365.20 1456.10 365.13 1406.34 365.28 Z" />
<path fill="#ffeb3a" opacity="1.00" d=" M 447.89 444.00 C 449.64 441.06 453.30 439.00 456.69 440.24 C 457.94 441.12 458.27 442.71 458.98 444.00 L 447.89 444.00 Z" />
</g>
</svg>
