<svg xmlns="http://www.w3.org/2000/svg" version="1.1" xmlns:xlink="http://www.w3.org/1999/xlink" xmlns:svgjs="http://svgjs.dev/svgjs" width="1000" height="238" viewBox="0 0 1000 238"><g transform="matrix(1,0,0,1,0.16994382022460286,0.4245757539928974)"><svg viewBox="0 0 356 85" data-background-color="#FFFF00" preserveAspectRatio="xMidYMid meet" height="238" width="1000" xmlns="http://www.w3.org/2000/svg" xmlns:xlink="http://www.w3.org/1999/xlink"><g id="tight-bounds" transform="matrix(1,0,0,1,-0.06049999999996203,-0.1516341978546052)"><svg viewBox="0 0 356.12052 85.30326839570918" height="85.30326839570918" width="356.12052"><g><svg viewBox="0 0 356.12052 85.30326839570918" height="85.30326839570918" width="356.12052"><g><svg viewBox="0 0 356.12052 85.30326839570918" height="85.30326839570918" width="356.12052"><g><path d="M0 85.303v-85.303h356.121v85.303z" fill="#fce44d" stroke="transparent" stroke-width="0" rx="0%" data-fill-palette-color="tertiary"></path><path d="M3.283 82.02v-78.737h349.554v78.737z" fill="#ffffff" stroke="transparent" stroke-width="0" rx="0%" data-fill-palette-color="quaternary"></path><path d="M9.85 75.453v-65.603h336.421v65.603z" fill="#fce44d" stroke="transparent" stroke-width="0" data-fill-palette-color="tertiary"></path></g><g transform="matrix(1,0,0,1,19.69974,19.69974)" id="textblocktransform"><svg viewBox="0 0 316.72104 45.90378839570918" height="45.90378839570918" width="316.72104" id="textblock"><g><svg viewBox="0 0 316.72104 45.90378839570918" height="45.90378839570918" width="316.72104"><g transform="matrix(1,0,0,1,0,0)"><svg width="316.72104" viewBox="2.0999999046325684 -29.25 204.8199920654297 29.690000534057617" height="45.90378839570918" data-palette-color="#ffffff"><path d="M18.55 0.44L18.55 0.44Q13.48 0.44 9.77-1.27 6.05-2.98 4.08-6.15 2.1-9.33 2.1-13.67L2.1-13.67Q2.1-17.53 3.49-20.43 4.88-23.34 7.35-25.27 9.81-27.2 13.01-28.15 16.21-29.1 19.87-29.1L19.87-29.1Q22.27-29.1 24.54-28.59 26.81-28.08 28.22-27.34L28.22-27.34 28.56-19.38 25.05-19.19 23.1-24.66Q22.17-25.05 21.29-25.22 20.41-25.39 19.43-25.39L19.43-25.39Q17.19-25.39 15.45-24.24 13.72-23.1 12.74-20.8 11.77-18.51 11.77-15.09L11.77-15.09Q11.77-11.57 12.89-8.96 14.01-6.35 15.89-4.91 17.77-3.47 20.07-3.47L20.07-3.47Q21.44-3.47 22.58-3.81 23.73-4.15 24.56-4.83L24.56-4.83 26.17-9.42 30.08-9.03 28.66-2.25Q27.15-1.12 24.37-0.34 21.58 0.44 18.55 0.44ZM48.58 0.44L48.58 0.44Q43.94 0.44 40.31-1.42 36.67-3.27 34.59-6.49 32.52-9.72 32.52-13.82L32.52-13.82Q32.52-18.26 34.57-21.7 36.62-25.15 40.26-27.12 43.89-29.1 48.53-29.1L48.53-29.1Q53.07-29.1 56.54-27.29 60.01-25.49 61.96-22.27 63.91-19.04 63.91-14.84L63.91-14.84Q63.91-10.74 62.38-7.84 60.84-4.93 58.44-3.1 56.05-1.27 53.42-0.42 50.78 0.44 48.58 0.44ZM48.87-3.81L48.87-3.81Q50.88-3.81 52.12-4.91 53.37-6.01 53.95-8.18 54.54-10.35 54.54-13.53L54.54-13.53Q54.54-17.19 53.73-19.82 52.93-22.46 51.46-23.9 50-25.34 47.95-25.34L47.95-25.34Q45.16-25.34 43.55-22.78 41.94-20.21 41.94-15.58L41.94-15.58Q41.94-12.11 42.82-9.45 43.7-6.79 45.26-5.3 46.82-3.81 48.87-3.81ZM82.51 0L67.57 0 67.43-2.78 70.6-3.71Q70.7-3.91 70.8-5.03 70.89-6.15 70.94-7.86 70.99-9.57 70.99-11.43L70.99-11.43 70.99-17.29Q70.99-19.19 70.94-20.9 70.89-22.61 70.8-23.75 70.7-24.9 70.6-25.05L70.6-25.05 67.43-25.88 67.57-28.66 82.51-28.66 82.66-25.88 79.49-25.05Q79.39-24.8 79.32-23.58 79.24-22.36 79.19-20.65 79.15-18.95 79.15-17.29L79.15-17.29 79.15-11.43Q79.15-9.81 79.19-8.13 79.24-6.45 79.32-5.22 79.39-4 79.49-3.71L79.49-3.71 82.66-2.78 82.51 0ZM112.79-10.25L110.1-10.25 110.1-15.63Q110.1-17.68 110.08-19.73 110.05-21.78 109.98-23.24 109.9-24.71 109.76-24.95L109.76-24.95 106.29-25.88 106.44-28.66 117.57-28.66 117.72-25.88 114.54-24.95Q114.45-24.71 114.35-23.27 114.25-21.83 114.23-19.78 114.2-17.72 114.2-15.63L114.2-15.63 114.2-7.76Q114.2-5.08 114.18-3.25 114.15-1.42 114.15 0.29L114.15 0.29 110.69 0.29 89.98-21.58 93.6-21.58 93.6-13.96Q93.6-11.52 93.62-9.3 93.64-7.08 93.74-5.57 93.84-4.05 93.99-3.71L93.99-3.71 97.45-2.78 97.31 0 85.93 0 85.78-2.78 88.96-3.71Q89.06-4.05 89.13-5.66 89.2-7.28 89.25-9.52 89.3-11.77 89.3-13.96L89.3-13.96 89.3-19.24Q89.3-19.82 89.23-21.02 89.15-22.22 89.08-23.39 89.01-24.56 88.96-24.95L88.96-24.95 85.78-25.88 85.93-28.66 94.33-28.66 112.79-10.25ZM131.29 0.44L131.29 0.44Q129.24 0.44 126.65-0.2 124.06-0.83 122.06-1.9L122.06-1.9 121.87-9.67 125.67-9.86 127.48-4.39Q128.26-3.91 129.51-3.56 130.75-3.22 131.87-3.22L131.87-3.22Q133.88-3.22 134.88-3.98 135.88-4.74 135.88-6.1L135.88-6.1Q135.88-7.71 134.88-8.69 133.88-9.67 132.29-10.3 130.7-10.94 128.9-11.57 127.09-12.21 125.5-13.18 123.92-14.16 122.91-15.75 121.91-17.33 121.91-19.92L121.91-19.92Q121.91-22.71 123.53-24.8 125.14-26.9 128.07-28.08 131-29.25 134.95-29.25L134.95-29.25Q135.98-29.25 137.34-29.05 138.71-28.86 140.03-28.54 141.35-28.22 142.28-27.78L142.28-27.78 143.01-20.02 139.3-19.82 137.59-25.05Q136.22-25.63 134.46-25.63L134.46-25.63Q132.85-25.63 131.63-24.78 130.41-23.93 130.41-22.17L130.41-22.17Q130.41-20.65 131.44-19.73 132.46-18.8 134.07-18.12 135.68-17.43 137.51-16.75 139.35-16.06 140.96-15.09 142.57-14.11 143.59-12.57 144.62-11.04 144.62-8.64L144.62-8.64Q144.62-6.01 142.96-3.96 141.3-1.9 138.32-0.73 135.34 0.44 131.29 0.44ZM180.8 0L164.29 0 164.05-2.78 166.34-3.27Q166.1-3.81 165.86-4.22 165.61-4.64 164.88-5.62L164.88-5.62 159.75-12.21 158-12.21 158-14.79 159.66-15.09 169.71-25.34 166.54-25.88 166.69-28.66 178.89-28.66 179.04-25.78 175.48-25.24 165.47-16.6 165.08-19.14 174.55-7.37Q175.92-5.71 176.65-4.88 177.38-4.05 177.72-3.69 178.06-3.32 178.21-3.13L178.21-3.13 180.8-2.83 180.8 0ZM161.36 0L147.59 0 147.45-2.78 150.62-3.71Q150.72-3.96 150.79-6.2 150.87-8.45 150.87-11.43L150.87-11.43 150.87-17.29Q150.87-19.19 150.82-20.87 150.77-22.56 150.67-23.68 150.57-24.8 150.48-24.95L150.48-24.95 147.3-25.88 147.45-28.66 162.39-28.66 162.54-25.88 159.36-24.95Q159.26-24.71 159.19-23.51 159.12-22.31 159.07-20.65 159.02-18.99 159.02-17.29L159.02-17.29 159.02-11.43Q159.02-8.45 159.09-6.2 159.17-3.96 159.26-3.71L159.26-3.71 161.51-2.78 161.36 0ZM206.92-25.88L204.43-24.95 193.78-7.81 196.52-13.72 196.52-8.69Q196.52-8.4 196.52-7.67 196.52-6.93 196.57-6.08 196.62-5.22 196.66-4.54 196.71-3.86 196.81-3.71L196.81-3.71 200.23-2.83 200.08 0 184.95 0 184.8-2.83 188.22-3.71Q188.32-3.86 188.34-4.54 188.36-5.22 188.41-6.08 188.46-6.93 188.46-7.67 188.46-8.4 188.46-8.69L188.46-8.69 188.46-13.72 190.41-7.81 180.6-24.95 178.11-25.88 178.26-28.66 192.95-28.66 193.1-25.88 189.93-24.95 195.54-14.89 194.13-14.89 199.79-24.95 196.37-25.88 196.52-28.66 206.77-28.66 206.92-25.88Z" opacity="1" transform="matrix(1,0,0,1,0,0)" fill="#ffff00" class="undefined-text-0" data-fill-palette-color="quaternary" id="text-0"></path></svg></g></svg></g></svg></g></svg></g><g></g></svg></g><defs></defs></svg><rect width="356.12052" height="85.30326839570918" fill="none" stroke="none" visibility="hidden"></rect></g></svg></g></svg>